<?xml version="1.0" encoding="UTF-8"?>
<!DOCTYPE svg PUBLIC "-//W3C//DTD SVG 1.1//EN" "http://www.w3.org/Graphics/SVG/1.1/DTD/svg11.dtd">
<svg xmlns="http://www.w3.org/2000/svg" version="1.1" width="52px" height="52px" style="shape-rendering:geometricPrecision; text-rendering:geometricPrecision; image-rendering:optimizeQuality; fill-rule:evenodd; clip-rule:evenodd" xmlns:xlink="http://www.w3.org/1999/xlink">
<g><path style="opacity:0.846" fill="#005353" d="M 25.5,29.5 C 23.7982,27.1998 23.1315,24.5331 23.5,21.5C 27.9251,22.2434 30.5918,20.4101 31.5,16C 31.0097,14.018 30.0097,12.3513 28.5,11C 26.1116,10.6966 23.9449,9.86328 22,8.5C 21.1667,4 23,2.16667 27.5,3C 29.0738,4.82586 29.9071,6.99253 30,9.5C 32.3016,11.5744 34.9683,12.9077 38,13.5C 39.4759,18.3621 37.6426,20.5288 32.5,20C 28.9905,23.048 28.6572,26.3813 31.5,30C 33.6585,30.912 35.8252,31.7454 38,32.5C 38.6667,34.1667 38.6667,35.8333 38,37.5C 35.8252,38.2546 33.6585,39.088 31.5,40C 30.0201,42.559 28.6867,45.2257 27.5,48C 23,48.8333 21.1667,47 22,42.5C 23.8259,40.9262 25.9925,40.0929 28.5,40C 32.8577,34.9098 31.8577,31.4098 25.5,29.5 Z"/></g>
<g><path style="opacity:0.628" fill="#007070" d="M 23.5,21.5 C 23.1315,24.5331 23.7982,27.1998 25.5,29.5C 20.847,30.3269 18.5137,33.1602 18.5,38C 13.3333,39.5 11.5,37.6667 13,32.5C 15.1748,31.7454 17.3415,30.912 19.5,30C 22.1667,27 22.1667,24 19.5,21C 17.3415,20.088 15.1748,19.2546 13,18.5C 11.5,13.3333 13.3333,11.5 18.5,13C 19.0279,16.5633 20.6946,19.3967 23.5,21.5 Z"/></g>
<g><path style="opacity:0.868" fill="#343434" d="M 40.5,21.5 C 47.4863,21.331 49.153,24.1643 45.5,30C 41.5698,31.4211 38.9032,30.2545 37.5,26.5C 38.0654,24.4908 39.0654,22.8241 40.5,21.5 Z"/></g>
</svg>
