<svg width="52" height="52" viewBox="0 0 52 52" fill="none" xmlns="http://www.w3.org/2000/svg">
<g clip-path="url(#clip0_309_1018)">
<path d="M35.1223 42.494L41.7783 49.155C43.7295 51.1078 46.909 51.3457 48.989 49.5218C51.2671 47.5195 51.3463 44.0502 49.2366 41.9389L39.3714 32.0662L39.312 32.0365C43.3234 24.7212 42.0259 15.2648 35.3996 9.33727C28.7733 3.40971 17.9573 3.11234 11.0042 9.16876C2.84267 16.2858 2.52572 28.6861 10.0434 36.2096C16.3231 42.494 26.0099 43.3068 33.1711 38.6381C34.8648 37.5378 35.0926 35.139 33.6663 33.7017C32.6065 32.6411 30.9425 32.4528 29.6846 33.2755C24.6133 36.5862 17.5909 35.704 13.5596 30.6487C10.0632 26.2675 10.0632 19.9236 13.5596 15.5424C17.5909 10.497 24.5935 9.61482 29.6549 12.8958C30.7741 13.6194 30.9524 15.1955 30.0015 16.147L24.5737 21.579" stroke="#004DA2" stroke-width="2.5" stroke-linecap="round" stroke-linejoin="round"/>
<path d="M43.4423 31.3031C46.8693 22.8082 44.6804 13.0446 37.6876 6.78992C29.4865 -0.535283 17.0659 -0.624494 8.77562 6.60158C4.1402 10.6458 1.46591 16.2562 1.24801 22.382C1.04001 28.4285 3.36762 34.3462 7.64648 38.6283C12.5691 43.5547 19.453 45.7057 26.0495 44.8334" stroke="#43BFEF" stroke-width="2.5" stroke-linecap="round" stroke-linejoin="round"/>
<path d="M23.088 28.9637C26.3209 28.9637 28.9417 26.3409 28.9417 23.1055C28.9417 19.8701 26.3209 17.2473 23.088 17.2473C19.8551 17.2473 17.2343 19.8701 17.2343 23.1055C17.2343 26.3409 19.8551 28.9637 23.088 28.9637Z" stroke="#43BFEF" stroke-width="2.5" stroke-linecap="round" stroke-linejoin="round"/>
<path d="M23.3493 25.2287C24.5219 25.0833 25.3547 24.0142 25.2095 22.8407C25.0643 21.6672 23.996 20.8337 22.8233 20.979C21.6507 21.1244 20.8179 22.1935 20.9631 23.367C21.1083 24.5405 22.1766 25.374 23.3493 25.2287Z" stroke="#004DA2" stroke-width="2.5" stroke-linecap="round" stroke-linejoin="round"/>
</g>
<defs>
<clipPath id="clip0_309_1018">
<rect width="52" height="52" fill="white"/>
</clipPath>
</defs>
</svg>
