<svg width="18" height="18" viewBox="0 0 18 18" fill="none" xmlns="http://www.w3.org/2000/svg">
<g id="noun-clock-5643985 1">
<path id="Vector" fill-rule="evenodd" clip-rule="evenodd" d="M8.99738 3.81362C6.13435 3.81362 3.81338 6.13464 3.81338 8.99762C3.81338 11.8606 6.1344 14.1816 8.99738 14.1816C11.8604 14.1816 14.1814 11.8606 14.1814 8.99762C14.1814 6.13459 11.8604 3.81362 8.99738 3.81362ZM2.66138 8.99762C2.66138 5.49842 5.49818 2.66162 8.99738 2.66162C12.4966 2.66162 15.3334 5.49842 15.3334 8.99762C15.3334 12.4968 12.4966 15.3336 8.99738 15.3336C5.49818 15.3336 2.66138 12.4968 2.66138 8.99762ZM8.99738 4.96562C9.31549 4.96562 9.57333 5.22346 9.57333 5.54157V8.64168L11.559 9.63438C11.8435 9.77672 11.9588 10.1226 11.8165 10.4072C11.6743 10.6918 11.3284 10.8071 11.0438 10.6649L8.73982 9.51286C8.54466 9.41522 8.4214 9.21583 8.4214 8.99767V5.54167C8.4214 5.22356 8.67924 4.96572 8.99735 4.96572L8.99738 4.96562Z" fill="#4C4C66"/>
</g>
</svg>
