<svg width="16" height="17" viewBox="0 0 16 17" fill="none" xmlns="http://www.w3.org/2000/svg">
<g id="Group 762678">
<path id="Vector" d="M8.451 1.8515C9.76999 1.8528 11.0588 2.24538 12.1548 2.97947C13.2506 3.71355 14.104 4.75623 14.6071 5.97562C15.1102 7.19492 15.2402 8.53607 14.9808 9.82939C14.7214 11.1227 14.0843 12.3098 13.1499 13.2408C12.2156 14.1718 11.0261 14.8047 9.73187 15.0593C8.43771 15.314 7.09713 15.1792 5.87952 14.6718C4.66207 14.1643 3.62246 13.3072 2.89239 12.2087C2.16221 11.1102 1.77428 9.81992 1.77773 8.50088C1.78229 6.73462 2.48763 5.04235 3.73884 3.79569C4.98995 2.54907 6.68477 1.84983 8.45095 1.85162L8.451 1.8515ZM7.9416 6.91811H6.75225H6.75234C6.66575 6.91886 6.57972 6.93095 6.49629 6.95411C6.39455 6.97531 6.31679 7.0579 6.30163 7.16076C6.27345 7.27256 6.32972 7.38844 6.435 7.4354C6.56307 7.4953 6.70072 7.53231 6.84162 7.54478C7.21224 7.56208 7.36162 7.72474 7.30562 8.10606C7.20164 8.81941 7.06167 9.52735 6.9416 10.2394C6.86031 10.7194 6.79223 11.2007 6.71364 11.6807C6.60827 12.3274 7.21095 12.9341 7.68963 13.014C7.9732 13.0537 8.2593 13.0721 8.54565 13.0687C9.15912 13.068 9.74524 12.8142 10.1656 12.3674C10.242 12.2971 10.2993 12.2085 10.3323 12.11C10.3484 12.024 10.3281 11.9352 10.2763 11.8647C10.2136 11.8255 10.1365 11.8171 10.0669 11.8421C9.95756 11.8781 9.86028 11.9527 9.75361 11.9994V11.9993C9.62898 12.0576 9.49839 12.1022 9.36428 12.1327C9.25611 12.1592 9.14171 12.137 9.0513 12.0718C8.96099 12.0066 8.9038 11.905 8.89496 11.7941C8.87245 11.67 8.86845 11.5432 8.88296 11.4181C8.92826 11.1087 8.99234 10.8021 9.04833 10.4953C9.2003 9.65895 9.35449 8.8221 9.51094 7.98466C9.55363 7.75531 9.62562 7.52995 9.57763 7.28871V7.28862C9.57009 7.18148 9.51987 7.08178 9.43812 7.01203C9.35637 6.94227 9.24997 6.90842 9.14293 6.918H7.94158L7.9416 6.91811ZM8.66695 3.95291C8.34469 3.93877 8.03005 4.05382 7.79288 4.27257C7.55581 4.49141 7.41584 4.79573 7.40403 5.11818C7.39231 5.44053 7.50968 5.75434 7.73019 5.98981C7.95071 6.2253 8.25605 6.36305 8.57859 6.37252C8.90104 6.38192 9.21392 6.26222 9.44783 6.04003C9.68173 5.81775 9.81725 5.51139 9.8243 5.18885C9.83323 4.87216 9.7166 4.56469 9.4998 4.33367C9.283 4.10255 8.98361 3.96667 8.66695 3.9555V3.95291Z" fill="#025AB2"/>
</g>
</svg>
